# Blender v2.80 (sub 75) OBJ File: 'scaling.blend'
# www.blender.org
o Cube.001_Cube.000
v -0.273163 1.257897 -0.819489
v -0.273163 1.257897 0.819489
v 0.273163 1.257897 0.819489
v 0.273163 1.257897 -0.819489
v -0.273163 1.407107 0.819489
v -0.273163 2.317650 0.819489
v 0.273163 1.407107 0.819489
v 0.273163 2.317650 0.819489
v 0.273163 1.407107 -0.819489
v 0.273163 2.317650 -0.819489
v -0.273163 2.317650 -0.819489
v -0.273163 1.407106 -0.819489
v -0.273163 1.862378 0.819489
v 0.273163 1.862378 0.819489
v 0.273163 1.862378 -0.819489
v -0.273163 1.862378 -0.819489
v -0.273163 2.545286 0.819489
v -0.273163 2.772922 0.819489
v 0.273163 2.545286 0.819489
v 0.273163 2.772922 0.819489
v 0.273163 2.545286 -0.819489
v 0.273163 2.772922 -0.819489
v -0.273163 2.772922 -0.819489
v -0.273163 2.545286 -0.819489
v -0.273163 1.634742 -0.819489
v -0.273163 1.634742 0.819489
v 0.273163 1.634743 0.819489
v 0.273163 1.634742 -0.819489
v -0.273163 2.090014 0.819489
v 0.273163 2.090014 0.819489
v 0.273163 2.090014 -0.819489
v -0.273163 2.090014 -0.819489
v -0.273163 2.886739 0.819489
v 0.273163 2.886739 0.819489
v 0.273163 2.886739 -0.819489
v -0.273163 2.886739 -0.819489
v -0.273163 -0.107918 -0.819489
v 0.273163 -0.107918 -0.819489
v 0.273163 -0.107918 0.819489
v -0.273163 -0.107918 0.819489
v 0.273163 -0.107918 -2.185304
v -0.273163 -0.107918 -2.185304
v 0.273163 -0.107918 2.185304
v -0.273163 -0.107918 2.185304
v 0.273164 -3.112711 0.000000
v -0.273162 -3.112711 0.000000
vt 0.143713 0.572762
vt 0.071856 0.692088
vt 0.071856 0.572762
vt 0.395210 0.665889
vt 0.610778 0.785214
vt 0.395210 0.785214
vt 0.071856 0.692088
vt 0.000000 0.572762
vt 0.071856 0.572762
vt 0.826347 0.606226
vt 0.610778 0.486900
vt 0.826347 0.486900
vt 0.970060 0.701686
vt 1.000000 0.486900
vt 1.000000 0.701686
vt 0.203593 0.787548
vt 0.173653 0.859143
vt 0.173653 0.787548
vt 0.365269 0.787548
vt 0.395210 0.572762
vt 0.395210 0.787548
vt 0.173653 0.787548
vt 0.143713 0.859143
vt 0.143713 0.787548
vt 0.712575 0.785214
vt 0.682635 0.856809
vt 0.682635 0.785214
vt 0.961908 0.214786
vt 0.931968 0.429572
vt 0.931968 0.214786
vt 0.772455 0.785214
vt 0.742515 0.856809
vt 0.742515 0.785214
vt 0.961908 0.214786
vt 0.991848 0.000000
vt 0.991848 0.214786
vt 0.218563 0.787548
vt 0.203593 0.859143
vt 0.203593 0.787548
vt 0.970060 0.916472
vt 0.985030 0.701686
vt 0.985030 0.916472
vt 0.826347 0.785214
vt 0.811377 0.856809
vt 0.811377 0.785214
vt 0.985030 0.916472
vt 1.000000 0.701686
vt 1.000000 0.916472
vt 0.742515 0.785214
vt 0.712575 0.856809
vt 0.991848 0.214786
vt 0.961908 0.429572
vt 0.802395 0.785214
vt 0.772455 0.856809
vt 0.931968 0.214786
vt 0.961908 0.000000
vt 0.359281 0.787548
vt 0.287425 0.572762
vt 0.359281 0.572762
vt 0.898204 0.486900
vt 0.970060 0.701686
vt 0.898204 0.701686
vt 0.143713 0.787548
vt 0.215569 0.572762
vt 0.215569 0.787548
vt 0.898204 0.916472
vt 0.970060 0.701686
vt 0.970060 0.916472
vt 0.395210 0.785214
vt 0.467066 1.000000
vt 0.395210 1.000000
vt 0.215569 0.572762
vt 0.287425 0.787548
vt 0.215569 0.787548
vt 0.467066 0.785214
vt 0.538922 1.000000
vt 0.467066 1.000000
vt 0.143713 0.871076
vt 0.143713 0.692088
vt 0.395210 0.486901
vt 0.610778 0.665889
vt 0.071856 0.871076
vt 0.000000 0.692088
vt 0.826347 0.785214
vt 0.610778 0.606226
vt 0.538922 0.964202
vt 0.610778 0.785214
vt 0.610778 0.964202
vt 0.682635 0.785214
vt 0.610778 0.964202
vt 0.610778 0.785214
vt 0.000000 0.000000
vt 0.000000 0.000000
vt 0.000000 0.000000
vt 0.000000 0.000000
vt 0.000000 0.000000
vt 0.000000 0.000000
vt 0.860112 0.393774
vt 0.931968 0.000000
vt 0.931968 0.393774
vt 0.826347 0.880674
vt 0.898204 0.486900
vt 0.898204 0.880674
vt 0.395210 0.336882
vt 0.860112 0.000000
vt 0.860112 0.486900
vt 0.395209 0.000000
vt 0.395210 0.572762
vt 0.000000 0.286381
vt 0.970060 0.486900
vt 0.203593 0.859143
vt 0.365269 0.572762
vt 0.173653 0.859143
vt 0.218563 0.859143
vt 0.970060 0.701686
vt 0.826347 0.856809
vt 0.985030 0.701686
vt 0.742515 0.856809
vt 0.991848 0.429572
vt 0.802395 0.856809
vt 0.931968 0.000000
vt 0.287425 0.787548
vt 0.970060 0.486900
vt 0.143713 0.572762
vt 0.898204 0.701686
vt 0.467066 0.785214
vt 0.287425 0.572762
vt 0.538922 0.785214
vt 0.071856 0.871076
vt 0.610778 0.486900
vt 0.000000 0.871076
vt 0.610779 0.785214
vt 0.538922 0.785214
vt 0.682635 0.964202
vt 0.000000 0.000000
vt 0.000000 0.000000
vt 0.860112 0.000000
vt 0.826347 0.486900
vn -0.0000 -0.0000 -1.0000
vn 1.0000 0.0000 0.0000
vn -0.0000 0.0000 1.0000
vn -1.0000 -0.0000 -0.0000
vn 0.0000 -1.0000 0.0000
vn 0.0000 1.0000 -0.0000
vn -0.5513 0.3786 0.7435
vn 0.1353 -0.9908 -0.0000
vn 0.5513 0.3786 -0.7435
vn 0.0681 -0.9977 -0.0000
vn 0.0000 -0.5882 0.8087
vn 0.0000 -0.5882 -0.8087
s 1
f 9/1/1 1/2/1 12/3/1
f 3/4/2 9/5/2 7/6/2
f 2/7/3 7/8/3 5/9/3
f 1/10/4 5/11/4 12/12/4
f 11/13/4 17/14/4 24/15/4
f 6/16/3 19/17/3 17/18/3
f 8/19/2 21/20/2 19/21/2
f 10/22/1 24/23/1 21/24/1
f 15/25/1 32/26/1 31/27/1
f 14/28/2 31/29/2 30/30/2
f 13/31/3 30/32/3 29/33/3
f 16/34/4 29/35/4 32/36/4
f 22/37/1 36/38/1 35/39/1
f 20/40/2 35/41/2 34/42/2
f 18/43/3 34/44/3 33/45/3
f 23/46/4 33/47/4 36/48/4
f 28/49/1 16/50/1 15/25/1
f 27/51/2 15/52/2 14/28/2
f 26/53/3 14/54/3 13/31/3
f 25/55/4 13/56/4 16/34/4
f 27/57/5 25/58/5 28/59/5
f 29/60/6 31/61/6 32/62/6
f 10/63/5 6/64/5 11/65/5
f 24/66/6 19/67/6 21/68/6
f 33/69/6 35/70/6 36/71/6
f 20/72/5 23/73/5 22/74/5
f 5/75/6 9/76/6 12/77/6
f 38/78/1 1/2/1 4/79/1
f 39/80/2 4/81/2 3/4/2
f 40/82/3 3/83/3 2/7/3
f 37/84/4 2/85/4 1/10/4
f 40/86/6 43/87/6 39/88/6
f 38/89/6 42/90/6 37/91/6
f 37/92/4 44/93/7 40/94/8
f 39/95/4 41/96/9 38/97/10
f 44/98/11 45/99/11 43/100/11
f 41/101/12 46/102/12 42/103/12
f 44/104/4 42/105/4 46/106/4
f 41/107/2 43/108/2 45/109/2
f 9/1/1 4/79/1 1/2/1
f 3/4/2 4/81/2 9/5/2
f 2/7/3 3/83/3 7/8/3
f 1/10/4 2/85/4 5/11/4
f 11/13/4 6/110/4 17/14/4
f 6/16/3 8/111/3 19/17/3
f 8/19/2 10/112/2 21/20/2
f 10/22/1 11/113/1 24/23/1
f 15/25/1 16/50/1 32/26/1
f 14/28/2 15/52/2 31/29/2
f 13/31/3 14/54/3 30/32/3
f 16/34/4 13/56/4 29/35/4
f 22/37/1 23/114/1 36/38/1
f 20/40/2 22/115/2 35/41/2
f 18/43/3 20/116/3 34/44/3
f 23/46/4 18/117/4 33/47/4
f 28/49/1 25/118/1 16/50/1
f 27/51/2 28/119/2 15/52/2
f 26/53/3 27/120/3 14/54/3
f 25/55/4 26/121/4 13/56/4
f 27/57/5 26/122/5 25/58/5
f 29/60/6 30/123/6 31/61/6
f 10/63/5 8/124/5 6/64/5
f 24/66/6 17/125/6 19/67/6
f 33/69/6 34/126/6 35/70/6
f 20/72/5 18/127/5 23/73/5
f 5/75/6 7/128/6 9/76/6
f 38/78/1 37/129/1 1/2/1
f 39/80/2 38/130/2 4/81/2
f 40/82/3 39/131/3 3/83/3
f 37/84/4 40/132/4 2/85/4
f 40/86/6 44/133/6 43/87/6
f 38/89/6 41/134/6 42/90/6
f 37/92/4 42/135/4 44/93/7
f 39/95/4 43/136/4 41/96/9
f 44/98/11 46/137/11 45/99/11
f 41/101/12 45/138/12 46/102/12
