# Blender v2.80 (sub 75) OBJ File: ''
# www.blender.org
o Cube.002_Cube.006
v 0.589718 -4.101299 0.000000
v 0.589718 -4.101299 0.589719
v 0.589718 -0.589598 0.000000
v 0.589718 -0.589598 0.589719
v -0.000000 -4.101299 0.000000
v -0.000000 -4.101299 0.589719
v -0.000000 -0.589598 0.000000
v -0.000000 -0.589598 0.589719
v 4.096366 -0.003926 0.000000
v 4.096366 -0.003926 0.589719
v 0.584665 -0.003926 0.000000
v 0.584665 -0.003926 0.589719
v 4.096366 -0.593645 0.000000
v 4.096366 -0.593645 0.589719
v 0.584665 -0.593644 0.000000
v 0.584665 -0.593644 0.589719
v 0.589719 0.000000 4.111701
v 0.000000 0.000000 4.111701
v 0.589718 0.000000 -0.000000
v -0.000000 0.000000 0.000000
v 0.589719 -0.589718 4.111701
v 0.000000 -0.589718 4.111701
v 0.589718 -0.589718 -0.000000
v -0.000000 -0.589718 0.000000
vt 0.850000 0.400000
vt 0.700000 0.400000
vt 0.700000 0.550000
vt 0.850000 0.550000
vt 0.700000 0.700000
vt 0.850000 0.700000
vt 0.700000 0.850000
vt 0.850000 0.850000
vt 0.700000 1.000000
vt 0.550000 0.700000
vt 0.550000 0.850000
vt 1.000000 0.700000
vt 0.400000 0.625000
vt 0.550000 0.625000
vt 0.550000 0.475000
vt 0.400000 0.475000
vt 0.550000 0.325000
vt 0.400000 0.325000
vt 0.550000 0.175000
vt 0.400000 0.175000
vt 0.550000 0.025000
vt 0.700000 0.325000
vt 0.700000 0.175000
vt 0.250000 0.325000
vt 0.300000 0.400000
vt 0.150000 0.400000
vt 0.150000 0.550000
vt 0.300000 0.550000
vt 0.150000 0.700000
vt 0.300000 0.700000
vt 0.150000 0.850000
vt 0.150000 1.000000
vt 0.300000 1.000000
vt 0.000000 0.700000
vt 0.000000 0.850000
vt 0.450000 0.700000
vt 0.300000 0.850000
vt 0.850000 1.000000
vt 1.000000 0.850000
vt 0.400000 0.025000
vt 0.250000 0.175000
vt 0.450000 0.850000
vn 1.0000 -0.0000 0.0000
vn 0.0000 1.0000 0.0000
vn -1.0000 0.0000 0.0000
vn 0.0000 -1.0000 0.0000
vn -0.0000 0.0000 -1.0000
vn 0.0000 0.0000 1.0000
s off
f 2/1/1 1/2/1 3/3/1
f 4/4/2 3/3/2 7/5/2
f 8/6/3 7/5/3 5/7/3
f 6/8/4 5/7/4 1/9/4
f 7/5/5 3/10/5 1/11/5
f 4/12/6 8/6/6 6/8/6
f 10/13/2 9/14/2 11/15/2
f 12/16/3 11/15/3 15/17/3
f 16/18/4 15/17/4 13/19/4
f 14/20/1 13/19/1 9/21/1
f 15/17/5 11/22/5 9/23/5
f 12/24/6 16/18/6 14/20/6
f 18/25/2 17/26/2 19/27/2
f 20/28/5 19/27/5 23/29/5
f 24/30/4 23/29/4 21/31/4
f 21/31/6 17/32/6 18/33/6
f 23/29/1 19/34/1 17/35/1
f 20/36/3 24/30/3 22/37/3
f 2/1/1 3/3/1 4/4/1
f 4/4/2 7/5/2 8/6/2
f 8/6/3 5/7/3 6/8/3
f 6/8/4 1/9/4 2/38/4
f 7/5/5 1/11/5 5/7/5
f 4/12/6 6/8/6 2/39/6
f 10/13/2 11/15/2 12/16/2
f 12/16/3 15/17/3 16/18/3
f 16/18/4 13/19/4 14/20/4
f 14/20/1 9/21/1 10/40/1
f 15/17/5 9/23/5 13/19/5
f 12/24/6 14/20/6 10/41/6
f 18/25/2 19/27/2 20/28/2
f 20/28/5 23/29/5 24/30/5
f 24/30/4 21/31/4 22/37/4
f 21/31/6 18/33/6 22/37/6
f 23/29/1 17/35/1 21/31/1
f 20/36/3 22/37/3 18/42/3
