# Blender v2.80 (sub 75) OBJ File: 'scaling.blend'
# www.blender.org
o Plane.001
v 9.824671 13.070947 -3.755886
v 9.824673 -13.070945 -3.755886
v -9.824669 13.070945 -3.755897
v -9.824667 -13.070947 -3.755897
v 9.824667 13.070947 3.755897
v 9.824669 -13.070945 3.755897
v -9.824673 13.070945 3.755886
v -9.824671 -13.070947 3.755886
vt 0.500185 0.000185
vt 0.999815 0.000185
vt 0.999815 0.499815
vt 0.000185 0.000185
vt 0.499815 0.000185
vt 0.499815 0.499815
vt 0.500179 0.591647
vt 0.999808 0.591647
vt 0.999808 0.682729
vt 0.000185 0.591638
vt 0.499814 0.591638
vt 0.499814 0.682720
vt 0.999808 0.591277
vt 0.500179 0.591277
vt 0.500179 0.500194
vt 0.000185 0.500185
vt 0.499814 0.500185
vt 0.499814 0.591268
vt 0.500185 0.499815
vt 0.000185 0.499815
vt 0.500179 0.682729
vt 0.000185 0.682720
vt 0.999808 0.500194
vt 0.000185 0.591268
vn 0.0000 0.0000 -1.0000
vn -0.0000 -0.0000 1.0000
vn 0.0000 -1.0000 0.0000
vn -0.0000 1.0000 -0.0000
vn -1.0000 -0.0000 -0.0000
vn 1.0000 0.0000 0.0000
s off
f 3/1/1 1/2/1 2/3/1
f 6/4/2 5/5/2 7/6/2
f 4/7/3 2/8/3 6/9/3
f 1/10/4 3/11/4 7/12/4
f 3/13/5 4/14/5 8/15/5
f 2/16/6 1/17/6 5/18/6
f 3/1/1 2/3/1 4/19/1
f 6/4/2 7/6/2 8/20/2
f 4/7/3 6/9/3 8/21/3
f 1/10/4 7/12/4 5/22/4
f 3/13/5 8/15/5 7/23/5
f 2/16/6 5/18/6 6/24/6
